<?xml version="1.0" encoding="UTF-8" standalone="no"?>
<!DOCTYPE svg PUBLIC "-//W3C//DTD SVG 1.1//EN" "http://www.w3.org/Graphics/SVG/1.1/DTD/svg11.dtd">
<svg width="100%" height="100%" viewBox="0 0 400 120" version="1.1" xmlns="http://www.w3.org/2000/svg" xmlns:xlink="http://www.w3.org/1999/xlink" xml:space="preserve" xmlns:serif="http://www.serif.com/" style="fill-rule:evenodd;clip-rule:evenodd;stroke-linejoin:round;stroke-miterlimit:2;">
    <g transform="matrix(1.794578,0,-0.393782,1.794578,-96.922298,9.499278)">
        <clipPath id="_clip1">
            <path d="M95.609,11.779L105.375,11.693L105.401,11.693C104.767,10.479 104.063,9.367 103.152,8.076C102.999,7.859 102.938,7.607 102.986,7.386C103.035,7.165 103.187,6.998 103.402,6.928L108.352,5.328C108.701,5.215 109.139,5.381 109.4,5.724C111.211,8.103 112.559,10.636 113.697,13.636C113.848,14.035 113.698,14.421 113.342,14.547L112.637,14.797L114.564,17.442C114.774,17.731 114.815,18.078 114.667,18.331C114.33,18.909 113.951,20.02 113.422,21.61C108.615,36.785 100.068,46.198 84.892,53.027C84.695,53.116 84.45,53.108 84.217,53.007C83.985,52.905 83.787,52.719 83.672,52.494C82.287,49.77 80.281,47.189 77.939,45.182C77.701,44.977 77.562,44.689 77.571,44.416C77.579,44.143 77.734,43.924 77.981,43.835C90.506,39.328 98.423,31.905 102.241,21.104L90.726,21.234C87.613,26.127 83.636,30.426 79.415,33.654C79.258,33.774 79.045,33.816 78.821,33.771C78.597,33.726 78.382,33.599 78.223,33.416C75.914,30.771 74.377,29.423 71.396,27.644C71.13,27.485 70.937,27.22 70.885,26.94C70.832,26.659 70.927,26.403 71.136,26.259C76.801,22.367 81.136,17.392 84.24,11.234C85.492,8.73 86.18,6.859 86.324,5.463C86.365,5.069 86.713,4.831 87.137,4.907L96.587,6.607C96.875,6.659 97.147,6.848 97.309,7.11C97.471,7.371 97.5,7.668 97.386,7.896C97.143,8.383 97.091,8.437 96.808,9.049C96.745,9.217 96.599,9.518 96.451,9.863L96.448,9.871C96.259,10.297 96.068,10.722 96.02,10.864C96.012,10.887 96.004,10.909 95.993,10.931C95.835,11.27 95.707,11.559 95.609,11.779ZM110.648,4.779L115.348,3.229C115.7,3.113 116.143,3.281 116.405,3.63C118.103,5.895 119.292,8.055 120.681,11.297C120.856,11.704 120.713,12.11 120.349,12.245L115.599,13.995C115.392,14.071 115.141,14.047 114.91,13.93C114.68,13.812 114.491,13.612 114.393,13.381C113.03,10.169 111.916,8.027 110.408,5.935C110.252,5.718 110.189,5.465 110.235,5.242C110.281,5.02 110.432,4.85 110.648,4.779ZM124.281,6.944L133.731,7.494C133.99,7.509 134.254,7.643 134.444,7.856C134.634,8.068 134.729,8.336 134.7,8.579C134.501,10.27 134.503,10.27 134.155,20.117C133.851,30.691 132.828,36.304 130.399,41.819L130.398,41.822C128.72,45.583 126.792,48.33 123.336,51.99C123.183,52.152 122.946,52.22 122.691,52.175C122.437,52.13 122.192,51.976 122.025,51.758C119.564,48.524 118.214,47.17 115.125,44.998C114.896,44.837 114.734,44.596 114.685,44.345C114.637,44.093 114.707,43.858 114.875,43.707C117.657,41.218 119.17,39.169 120.683,35.949L120.685,35.944C123.005,31.106 123.77,24.976 123.77,12.189C123.77,10.033 123.723,8.955 123.576,7.681C123.525,7.243 123.836,6.918 124.281,6.944ZM138.432,6.693L147.832,6.693C148.101,6.693 148.381,6.824 148.584,7.044C148.786,7.265 148.884,7.546 148.848,7.798C148.552,9.815 148.504,10.602 148.455,13.502L148.222,37.853C150.038,36.564 151.307,35.293 152.638,33.454C154.395,30.965 155.565,28.426 156.443,25.107C156.516,24.834 156.749,24.656 157.049,24.644C157.35,24.631 157.67,24.787 157.881,25.049C160.31,28.061 161.572,29.325 164.341,31.463C164.688,31.731 164.841,32.166 164.707,32.5C162.415,38.205 159.761,42.123 155.89,45.433L155.889,45.435C152.833,48.032 150.341,49.361 145.198,51.245L145.193,51.247C143.863,51.722 143.481,51.859 142.864,52.239C142.545,52.435 142.073,52.334 141.757,52.004L137.457,47.504C137.208,47.242 137.11,46.893 137.208,46.611C137.633,45.382 137.72,44.577 137.72,42.639L137.72,42.633L137.97,13.036L137.97,11.239C137.97,9.68 137.923,8.608 137.776,7.438C137.724,7.016 138.008,6.693 138.432,6.693ZM180.102,15.002L179.735,13.093L179.733,13.079C179.196,10.007 178.956,8.982 178.469,7.568C178.316,7.124 178.536,6.717 178.964,6.652L188.164,5.252C188.419,5.213 188.704,5.304 188.931,5.495C189.157,5.687 189.296,5.956 189.305,6.217C189.354,7.733 189.6,9.395 189.991,11.643L190.344,13.409L197.212,12.352C200.715,11.809 202.098,11.564 204.269,10.923C204.508,10.852 204.794,10.908 205.037,11.074C205.28,11.24 205.45,11.495 205.494,11.759L206.894,20.159C206.962,20.569 206.715,20.9 206.314,20.936C204.624,21.085 204.624,21.085 199.26,21.88L192.122,22.978L193.004,27.609L201.312,26.352C204.712,25.81 206.34,25.466 208.41,24.825C208.648,24.752 208.934,24.805 209.179,24.968C209.423,25.132 209.595,25.386 209.642,25.65L211.142,34.1C211.215,34.509 210.974,34.842 210.577,34.884C207.739,35.183 207.738,35.183 203.558,35.78L194.773,37.128L196.04,43.687L196.041,43.693C196.828,47.925 196.924,48.417 197.514,50.287C197.651,50.72 197.434,51.111 197.019,51.179L187.519,52.729C187.26,52.771 186.967,52.678 186.738,52.48C186.508,52.282 186.37,52.005 186.37,51.739C186.37,50.076 186.169,48.656 185.484,44.937L185.483,44.934L184.363,38.728L175.415,40.129C171.999,40.674 171.751,40.723 168.631,41.516C168.39,41.577 168.109,41.514 167.872,41.346C167.636,41.179 167.472,40.926 167.43,40.666L166.08,32.166C166.014,31.747 166.278,31.414 166.693,31.394C168.717,31.295 170.791,31.097 173.754,30.603L173.761,30.602L182.659,29.204L181.815,24.581L175.866,25.529L175.862,25.53C171.657,26.173 170.518,26.369 168.49,26.913C168.249,26.978 167.966,26.917 167.727,26.749C167.488,26.582 167.322,26.327 167.28,26.065L165.93,17.515C165.863,17.088 166.138,16.753 166.564,16.743C168.733,16.694 170.359,16.495 173.811,15.952L173.815,15.952L180.102,15.002ZM238.273,5.942L247.673,9.092C247.94,9.182 248.175,9.384 248.303,9.638C248.432,9.891 248.439,10.164 248.323,10.372C247.633,11.603 247.241,12.54 246.256,14.953L246.254,14.956C244.283,19.717 242.357,23.65 239.906,27.679C243.83,31.035 245.478,32.651 250.273,37.733C250.602,38.081 250.65,38.565 250.383,38.843L243.583,45.943C243.429,46.103 243.193,46.17 242.94,46.125C242.686,46.079 242.443,45.927 242.276,45.709C239.74,42.388 237.116,39.5 233.68,36.275C228.956,42.202 222.93,47.119 214.639,51.704C214.45,51.808 214.205,51.817 213.967,51.727C213.73,51.637 213.521,51.459 213.395,51.236C211.759,48.35 210.314,46.573 207.333,43.976C207.108,43.78 206.973,43.508 206.97,43.246C206.968,42.984 207.099,42.766 207.321,42.66C213.453,39.742 216.817,37.569 220.724,34.058C222.535,32.423 224.071,30.868 225.506,29.179C219.91,24.953 217.253,23.135 213.416,20.956C213.164,20.813 212.972,20.572 212.9,20.309C212.829,20.046 212.886,19.792 213.055,19.626L219.205,13.576C219.435,13.349 219.826,13.331 220.169,13.531C224.521,16.066 226.786,17.601 231.309,20.893C234.03,16.347 236.627,10.12 237.333,6.404C237.41,5.996 237.825,5.792 238.273,5.942ZM265.343,37.539L257.093,37.539C256.831,37.539 256.556,37.413 256.355,37.201C256.153,36.989 256.049,36.716 256.074,36.465C256.171,35.498 256.17,35.063 256.17,34.289C256.17,33.352 256.169,33.352 255.972,30.442L255.972,30.439L254.972,14.589L254.971,14.577C254.872,12.54 254.623,10.304 254.374,7.87C254.332,7.455 254.615,7.143 255.032,7.143L266.682,7.143C266.949,7.143 267.227,7.272 267.429,7.49C267.631,7.707 267.732,7.986 267.699,8.237C267.55,9.38 267.253,12.856 267.103,14.943L266.104,30.784C266.005,32.86 265.955,33.85 265.955,34.592C265.955,35.085 265.955,35.628 266.005,36.861C266.02,37.253 265.742,37.539 265.343,37.539ZM266.243,50.389L256.193,50.389C255.944,50.389 255.683,50.276 255.485,50.081C255.286,49.887 255.17,49.633 255.17,49.389L255.17,39.939C255.17,39.562 255.446,39.293 255.832,39.293L265.882,39.293C266.131,39.293 266.392,39.406 266.591,39.6C266.79,39.794 266.905,40.049 266.905,40.292L266.905,49.742C266.905,50.12 266.63,50.389 266.243,50.389Z" clip-rule="nonzero"/>
        </clipPath>
        <g clip-path="url(#_clip1)">
            <g transform="matrix(0.557234,-0,0.122273,0.557234,52.846894,-5.293321)">
                <path d="M70.018,30.637L87.577,30.483L87.59,30.483L87.624,30.483C86.963,28.304 86.139,26.309 85.011,23.992C84.822,23.603 84.813,23.15 84.987,22.754C85.16,22.357 85.498,22.057 85.913,21.932L95.426,19.061C96.097,18.858 96.818,19.155 97.151,19.771C99.463,24.041 100.885,28.587 101.746,33.97C101.86,34.686 101.438,35.379 100.749,35.606L99.387,36.054L101.803,40.801C102.067,41.319 102.003,41.942 101.639,42.395C100.806,43.433 99.689,45.427 98.112,48.279C83.51,75.513 64.466,92.405 34.541,104.661C34.153,104.82 33.716,104.806 33.339,104.624C32.962,104.441 32.68,104.107 32.563,103.705C31.149,98.816 28.566,94.183 25.154,90.581C24.807,90.215 24.671,89.697 24.794,89.207C24.917,88.718 25.281,88.324 25.759,88.165C50.011,80.076 67.142,66.755 78.246,47.373L57.532,47.606C50.018,56.387 41.187,64.102 32.341,69.894C32.013,70.109 31.613,70.184 31.23,70.104C30.846,70.024 30.51,69.795 30.296,69.466C27.195,64.72 24.967,62.302 20.317,59.109C19.902,58.824 19.661,58.347 19.677,57.844C19.693,57.342 19.964,56.881 20.396,56.623C32.095,49.639 41.834,40.711 49.829,29.66C53.061,25.167 55.033,21.809 55.842,19.303C56.07,18.596 56.789,18.168 57.519,18.305L73.808,21.356C74.305,21.449 74.719,21.789 74.907,22.258C75.095,22.727 75.03,23.26 74.735,23.67C74.107,24.543 73.994,24.64 73.243,25.739C73.065,26.041 72.685,26.58 72.283,27.2L72.274,27.213C71.767,27.978 71.256,28.74 71.115,28.995C71.093,29.037 71.068,29.077 71.041,29.116C70.623,29.725 70.28,30.243 70.018,30.637ZM99.763,18.076L108.808,15.294C109.485,15.086 110.214,15.388 110.546,16.014C112.702,20.078 113.984,23.954 115.201,29.773C115.354,30.503 114.938,31.232 114.232,31.473L105.018,34.614C104.617,34.75 104.176,34.708 103.808,34.497C103.44,34.287 103.18,33.928 103.095,33.512C101.915,27.749 100.76,23.904 98.877,20.149C98.682,19.761 98.668,19.307 98.839,18.907C99.009,18.508 99.347,18.204 99.763,18.076Z" style="fill:rgb(255,143,0);"/>
            </g>
            <g transform="matrix(0.557234,-0,0.122273,0.557234,52.846894,-5.293321)">
                <path d="M123.375,21.961L140.117,22.948C140.577,22.975 140.997,23.215 141.254,23.597C141.512,23.978 141.577,24.458 141.43,24.894C140.407,27.929 140.409,27.93 135.907,45.6C131.198,64.577 127.152,74.649 120.621,84.547L120.618,84.551C116.127,91.301 111.585,96.232 103.941,102.799C103.602,103.09 103.15,103.212 102.711,103.131C102.272,103.05 101.893,102.775 101.68,102.383C98.536,96.579 96.648,94.15 91.96,90.253C91.612,89.963 91.416,89.531 91.428,89.079C91.439,88.627 91.657,88.205 92.019,87.934C97.991,83.469 101.513,79.792 105.496,74.012L105.502,74.004C111.571,65.322 115.358,54.321 120.393,31.374C121.242,27.504 121.581,25.569 121.819,23.283C121.901,22.497 122.586,21.915 123.375,21.961ZM148.869,21.51L165.738,21.51C166.221,21.51 166.673,21.746 166.949,22.141C167.225,22.536 167.291,23.041 167.125,23.494C165.802,27.112 165.405,28.526 164.175,33.73L154.168,77.429C157.934,75.117 160.712,72.836 163.825,69.535C167.958,65.068 171.057,60.512 173.941,54.556C174.178,54.066 174.666,53.746 175.211,53.724C175.755,53.702 176.268,53.982 176.543,54.452C179.716,59.857 181.483,62.126 185.61,65.962C186.128,66.443 186.232,67.223 185.859,67.823C179.5,78.06 173.194,85.092 164.944,91.033L164.941,91.035C158.435,95.696 153.44,98.081 143.467,101.462L143.457,101.466C140.885,102.318 140.144,102.565 138.887,103.246C138.239,103.598 137.431,103.417 136.994,102.824L131.049,94.748C130.704,94.28 130.667,93.652 130.953,93.146C132.2,90.941 132.674,89.495 133.437,86.019L133.439,86.007L145.543,32.894L146.25,29.669C146.864,26.871 147.201,24.947 147.399,22.848C147.471,22.09 148.108,21.51 148.869,21.51Z" style="fill:rgb(255,143,0);"/>
            </g>
            <g transform="matrix(0.557234,-0,0.122273,0.557234,52.846894,-5.293321)">
                <path d="M220.378,36.421L220.471,32.996L220.472,32.97C220.719,27.457 220.692,25.619 220.374,23.081C220.274,22.284 220.829,21.553 221.624,21.436L238.685,18.924C239.157,18.854 239.634,19.017 239.964,19.361C240.295,19.705 240.439,20.187 240.352,20.656C239.843,23.377 239.631,26.36 239.447,30.393L239.385,33.562L252.127,31.666C258.627,30.692 261.204,30.252 265.353,29.101C265.81,28.974 266.301,29.075 266.672,29.373C267.042,29.67 267.247,30.127 267.222,30.602L266.427,45.676C266.388,46.412 265.813,47.006 265.079,47.07C261.989,47.337 261.989,47.338 252.05,48.765L238.807,50.735L238.566,59.047L253.97,56.79C260.286,55.817 263.342,55.2 267.31,54.05C267.767,53.918 268.259,54.014 268.633,54.307C269.007,54.6 269.217,55.056 269.197,55.531L268.561,70.695C268.53,71.428 267.967,72.027 267.237,72.102C262.027,72.638 262.025,72.638 254.289,73.71L237.993,76.129L237.684,87.9L237.683,87.91C237.43,95.504 237.407,96.387 237.731,99.743C237.806,100.52 237.262,101.222 236.491,101.343L218.832,104.125C218.35,104.201 217.862,104.034 217.527,103.679C217.193,103.323 217.055,102.826 217.16,102.35C217.815,99.364 218.013,96.816 218.248,90.142L218.248,90.136L218.681,79L202.072,81.514C195.726,82.492 195.262,82.581 189.351,84.003C188.895,84.112 188.415,83.999 188.056,83.699C187.698,83.398 187.503,82.945 187.531,82.477L188.456,67.224C188.501,66.471 189.106,65.874 189.858,65.838C193.531,65.661 197.33,65.305 202.841,64.419L202.854,64.417L219.374,61.909L219.68,53.611L208.631,55.313L208.622,55.314C200.823,56.469 198.702,56.821 194.848,57.797C194.391,57.913 193.906,57.804 193.543,57.503C193.18,57.202 192.982,56.746 193.011,56.275L193.955,40.932C194.003,40.166 194.629,39.563 195.396,39.546C199.308,39.458 202.306,39.1 208.713,38.127L208.721,38.126L220.378,36.421Z" style="fill:rgb(255,143,0);"/>
            </g>
            <g transform="matrix(0.557234,-0,0.122273,0.557234,52.846894,-5.293321)">
                <path d="M328.337,20.163L343.966,25.815C344.41,25.976 344.751,26.34 344.882,26.795C345.013,27.249 344.919,27.739 344.628,28.112C342.906,30.322 341.833,32.003 339.114,36.334L339.111,36.339C333.698,44.883 328.693,51.942 322.709,59.171C328.428,65.193 330.751,68.093 337.354,77.214C337.806,77.839 337.702,78.707 337.114,79.206L322.115,91.947C321.776,92.235 321.326,92.355 320.889,92.274C320.452,92.192 320.075,91.918 319.862,91.528C316.617,85.569 313.046,80.385 308.15,74.598C297.339,85.234 284.587,94.059 267.903,102.286C267.524,102.473 267.082,102.488 266.69,102.327C266.298,102.167 265.994,101.846 265.855,101.446C264.057,96.267 262.164,93.077 257.835,88.417C257.509,88.065 257.374,87.577 257.473,87.108C257.572,86.638 257.892,86.246 258.333,86.056C270.486,80.82 277.379,76.92 285.772,70.619C289.667,67.685 293.035,64.894 296.275,61.863C287.898,54.28 283.845,51.016 277.818,47.107C277.421,46.849 277.172,46.417 277.147,45.945C277.122,45.473 277.325,45.017 277.693,44.72L291.112,33.863C291.614,33.456 292.323,33.423 292.861,33.782C299.671,38.33 303.132,41.086 309.953,46.994C316.626,38.836 323.738,27.661 326.468,20.992C326.768,20.259 327.592,19.893 328.337,20.163Z" style="fill:rgb(255,143,0);"/>
            </g>
            <g transform="matrix(0.557234,-0,0.122273,0.557234,52.846894,-5.293321)">
                <path d="M364.475,76.865L349.67,76.865C349.198,76.865 348.755,76.64 348.477,76.259C348.199,75.879 348.119,75.388 348.263,74.939C348.817,73.204 348.988,72.423 349.293,71.034C349.662,69.353 349.66,69.352 350.452,64.13L350.453,64.124L354.9,35.68L354.903,35.659C355.527,32.004 355.961,27.991 356.473,23.622C356.561,22.878 357.191,22.318 357.94,22.318L378.847,22.318C379.325,22.318 379.774,22.55 380.051,22.94C380.328,23.33 380.399,23.83 380.241,24.282C379.524,26.332 377.621,32.569 376.532,36.315L368.5,64.743C367.505,68.47 367.026,70.245 366.733,71.577C366.539,72.463 366.325,73.436 365.928,75.649C365.802,76.353 365.19,76.865 364.475,76.865ZM361.03,99.926L342.994,99.926C342.547,99.926 342.124,99.723 341.844,99.374C341.563,99.026 341.456,98.569 341.552,98.132L345.273,81.174C345.422,80.496 346.022,80.013 346.716,80.013L364.751,80.013C365.198,80.013 365.621,80.216 365.902,80.565C366.182,80.913 366.289,81.37 366.194,81.807L362.472,98.765C362.324,99.443 361.723,99.926 361.03,99.926Z" style="fill:rgb(255,143,0);"/>
            </g>
        </g>
    </g>
</svg>
